PathFileType	4	(X/Y/Z)	D:\Share\Shared_Data\Ergonomics\Sit To Stand Pertubation\S1\Unperturbed_NoHarness.trc
DataRate	CameraRate	NumFrames	NumMarkers	Units	OrigDataRate	OrigDataStartFrame	OrigNumFrames	
100	100	16	18	m	100	901	281
Frame#	Time	R_Thigh_Med			R_ASIS			R_Pelvis			V_Sacral			L_Pelvis			L_ASIS			Clavical			R_Acromium			L_Acromium			Sternum			Torso			R_Thigh_Lat			R_Thigh			R_Shank_Med			R_Shank_Lat			R_Shank			R_Heel			R_Toe			
		X1	Y1	Z1	X2	Y2	Z2	X3	Y3	Z3	X4	Y4	Z4	X5	Y5	Z5	X6	Y6	Z6	X7	Y7	Z7	X8	Y8	Z8	X9	Y9	Z9	X10	Y10	Z10	X11	Y11	Z11	X12	Y12	Z12	X13	Y13	Z13	X14	Y14	Z14	X15	Y15	Z15	X16	Y16	Z16	X17	Y17	Z17	X18	Y18	Z18	

901	9	0.33264609	0.42064688	0.039522778	0.46174857	0.8961424	0.082947662	0.3851647	0.90469611	0.11748588	0.28980377	0.90015454	-0.023548872	0.38594305	0.9047547	-0.17553969	0.47356036	0.90216486	-0.11740089	0.4397764	1.2518094	-0.024699736	0.37250287	1.3186274	0.12585926	0.32764569	1.2665754	-0.21591727	0.42526141	1.2634235	0.078003159	0.43519662	1.2565901	-0.085211655	0.35154517	0.44036404	0.15663638	0.4478143	0.59940167	0.096619049	0.31339734	0.10240561	0.072423218	0.28946494	0.10079967	0.15218443	0.31228049	0.31107559	0.17330901	0.24375323	0.032457306	0.093361397	0.44881622	0.050437576	0.11903247
902	9.01	0.33226474	0.42062289	0.039538338	0.46110217	0.89620349	0.082804291	0.38338037	0.90540546	0.11700975	0.28931625	0.90005804	-0.023849937	0.38551981	0.90475842	-0.17574869	0.4730618	0.90268896	-0.11727332	0.43884039	1.2518038	-0.024676744	0.37128049	1.3185117	0.12580328	0.32704498	1.2667213	-0.21633948	0.42416663	1.2633761	0.077986557	0.43438834	1.2565968	-0.085220932	0.35125281	0.44039926	0.15658842	0.44736395	0.59944458	0.096486351	0.31333136	0.10236978	0.072423836	0.28948465	0.10074164	0.15217105	0.31208142	0.31112857	0.17317041	0.24373705	0.032433044	0.093369339	0.44879053	0.050470242	0.11904678
903	9.02	0.33188907	0.42061224	0.03951582	0.46045261	0.89627582	0.082654839	0.38168973	0.9060675	0.11655159	0.28881873	0.89995935	-0.024139172	0.38509909	0.90476514	-0.17594582	0.47256763	0.90318982	-0.11716169	0.437922	1.2518043	-0.024657589	0.37008871	1.3184088	0.12574887	0.32640262	1.2669873	-0.21693622	0.42309827	1.2633376	0.077967369	0.43359473	1.2566191	-0.085228119	0.35098856	0.44044415	0.1565403	0.44693018	0.59949512	0.096342125	0.31327399	0.10233765	0.072420685	0.28950983	0.10068793	0.15215019	0.31190265	0.31118207	0.17304053	0.24372131	0.032410618	0.093375404	0.44875415	0.050505787	0.11906349
904	9.03	0.33149326	0.42062387	0.039412189	0.4598028	0.8963548	0.082506386	0.38019467	0.90660089	0.11614209	0.28831766	0.89985657	-0.024420881	0.38469165	0.90477032	-0.17613393	0.47209143	0.90361548	-0.11708721	0.43702374	1.2518047	-0.024642826	0.36893671	1.3183136	0.12569408	0.32569992	1.2673882	-0.21775246	0.42205838	1.2633035	0.077945183	0.43281674	1.2566511	-0.08523307	0.35074301	0.44049014	0.15649165	0.44651129	0.59955029	0.09619368	0.3132244	0.10230706	0.072414658	0.28953693	0.10063631	0.15212428	0.3117395	0.31123096	0.17292015	0.24370616	0.032388931	0.093380341	0.44870609	0.050544968	0.11908264
905	9.04	0.3310412	0.42067172	0.039162102	0.45915735	0.89643518	0.082365616	0.37891693	0.90698242	0.1157904	0.28781982	0.89974945	-0.024702169	0.38430725	0.90477081	-0.17631384	0.47164276	0.90394788	-0.11705202	0.43614856	1.2517986	-0.024632465	0.36782846	1.3182214	0.12563613	0.32492917	1.2679236	-0.21880876	0.42104721	1.2632698	0.077920113	0.43205573	1.2566865	-0.085235497	0.35050955	0.44052817	0.15643919	0.44610794	0.5996076	0.096046829	0.31318188	0.10227568	0.072406654	0.28956387	0.10058468	0.15209587	0.31158978	0.31127075	0.17280928	0.24369179	0.032367203	0.093385025	0.44864639	0.050588615	0.11910307
906	9.05	0.33048639	0.42077353	0.038679905	0.45852002	0.89651257	0.08223735	0.37783829	0.90722156	0.11549358	0.28733099	0.89963678	-0.024989975	0.3839545	0.90476477	-0.17648177	0.47122845	0.90419104	-0.11704773	0.43529919	1.2517809	-0.024626287	0.36676288	1.3181306	0.1255724	0.32410568	1.2685631	-0.22006859	0.42006378	1.2632329	0.077892563	0.43131412	1.2567178	-0.085235237	0.35028461	0.44055075	0.15637811	0.44572025	0.59966382	0.095905457	0.31314532	0.1022414	0.072397621	0.28958957	0.10053137	0.15206737	0.31145215	0.31129834	0.17270821	0.24367819	0.032345074	0.093390297	0.44857639	0.050637463	0.11912283
907	9.06	0.32977911	0.42094836	0.037876667	0.45789276	0.89658405	0.082123688	0.37692291	0.90734308	0.11524407	0.28685464	0.89951654	-0.025288313	0.38363892	0.90475177	-0.17663351	0.47085178	0.90436017	-0.11706229	0.43447763	1.2517471	-0.024624023	0.3657363	1.3180394	0.1255011	0.32327542	1.2692369	-0.2214167	0.41910703	1.2631899	0.077862892	0.430595	1.2567375	-0.085232285	0.35006644	0.44055469	0.15630446	0.44534601	0.5997168	0.095771393	0.31311322	0.10220287	0.072388397	0.28961322	0.10047534	0.15204103	0.3113255	0.31131195	0.17261801	0.2436653	0.032322411	0.09339653	0.44849796	0.050692039	0.11914056
908	9.07	0.3288822	0.42121063	0.036690651	0.45727606	0.89664856	0.082024239	0.37612842	0.90737787	0.11503223	0.28639163	0.89938794	-0.025597147	0.38336151	0.90473169	-0.17677058	0.47051111	0.90447363	-0.11708562	0.43368457	1.2516962	-0.024625151	0.36474478	1.317948	0.12542159	0.3224993	1.2698562	-0.22269772	0.41817615	1.2631383	0.077831261	0.42990137	1.2567397	-0.085226753	0.34985416	0.44054184	0.15621747	0.44498151	0.59976526	0.095644669	0.31308362	0.10215985	0.072379608	0.28963364	0.10041642	0.15201883	0.31120804	0.31131094	0.17254025	0.2436528	0.032299107	0.093403572	0.44841333	0.050753002	0.11915607
909	9.08	0.32779477	0.42155865	0.035129745	0.45666922	0.89670691	0.081936745	0.37541284	0.90735742	0.11484666	0.28594217	0.89925446	-0.02591301	0.38311963	0.90470453	-0.17689998	0.47020129	0.90454742	-0.11711163	0.43291946	1.2516285	-0.024628538	0.36378561	1.3178568	0.12533416	0.32182239	1.2703568	-0.22379594	0.41727103	1.2630769	0.07779776	0.42923538	1.2567212	-0.085218918	0.34964716	0.44051788	0.15611983	0.4446236	0.59980908	0.095524223	0.31305453	0.10211307	0.072371574	0.28964911	0.10035555	0.15200209	0.31109729	0.31129596	0.17247614	0.2436404	0.032275036	0.093410843	0.44832526	0.050821609	0.11917022
910	9.09	0.32658517	0.42195639	0.033329582	0.45607141	0.89676025	0.081858147	0.37474118	0.90730884	0.11467634	0.28550748	0.89912128	-0.026230761	0.38290945	0.9046712	-0.17702902	0.46991684	0.90459448	-0.11713683	0.43218164	1.251547	-0.02463253	0.3628584	1.317767	0.12524001	0.32125937	1.2707172	-0.22467232	0.41639233	1.2630055	0.077762596	0.42859845	1.2566826	-0.085209137	0.34944516	0.44049005	0.15601669	0.44427026	0.59984882	0.095408958	0.31302393	0.10206362	0.07236425	0.28965762	0.10029462	0.15199118	0.31099017	0.31126892	0.17242525	0.24362766	0.032250118	0.093417717	0.44823669	0.050899872	0.11918417
911	9.1	0.32540869	0.42232422	0.031588364	0.45548328	0.89680945	0.081785683	0.37409131	0.90725177	0.11451398	0.28508978	0.89899316	-0.026546543	0.3827276	0.90463397	-0.17716199	0.46965396	0.90462488	-0.11715984	0.43147095	1.2514552	-0.024635508	0.36196396	1.3176797	0.12514108	0.32080341	1.2709479	-0.22534204	0.41554126	1.2629253	0.077726326	0.42799118	1.2566284	-0.085197731	0.34924835	0.44046518	0.15591489	0.44392056	0.59988458	0.095298225	0.31299017	0.10201279	0.072357468	0.28965753	0.10023563	0.15198566	0.31088409	0.3112334	0.17238513	0.2436144	0.032224224	0.093423996	0.4481499	0.050989494	0.1191991
912	9.11	0.32445764	0.42256415	0.030292181	0.45490771	0.89685437	0.081717705	0.37345642	0.90719757	0.11435715	0.28469095	0.89887347	-0.026859791	0.38257117	0.90459625	-0.17729996	0.4694104	0.90464661	-0.11718178	0.43078842	1.2513574	-0.024636496	0.36110327	1.3175952	0.12503963	0.32043787	1.2710735	-0.22584233	0.41471927	1.2628383	0.07768988	0.42741428	1.2565637	-0.085185143	0.34905701	0.44044687	0.15582071	0.44357397	0.5999165	0.095191963	0.31295218	0.10196179	0.072350983	0.28964853	0.10017967	0.15198492	0.31077777	0.31119342	0.17235204	0.24360057	0.032197056	0.093429977	0.44806476	0.051089912	0.11921581
913	9.12	0.32385925	0.42261414	0.029730398	0.45434872	0.89689435	0.081653427	0.37283942	0.90715155	0.11420628	0.28431177	0.89876355	-0.027172066	0.38243771	0.9045614	-0.1774416	0.46918521	0.90466486	-0.11720512	0.43013556	1.2512594	-0.024635365	0.3602771	1.3175142	0.12493766	0.32014514	1.2711194	-0.2262115	0.41392789	1.2627478	0.077654495	0.42686948	1.2564939	-0.085171921	0.34887097	0.44043359	0.15573676	0.44323126	0.59994464	0.095090561	0.31290979	0.10191138	0.072344391	0.28963202	0.10012694	0.15198825	0.31067188	0.31115253	0.17232198	0.24358646	0.032168083	0.093436241	0.447979	0.051196968	0.11923454
914	9.13	0.3236127	0.42248334	0.02993268	0.45381009	0.89692859	0.081592354	0.37224347	0.90711499	0.11406143	0.28395258	0.89866406	-0.027484846	0.3823251	0.9045318	-0.17758437	0.46897778	0.90468262	-0.11723113	0.42951443	1.2511663	-0.024632629	0.35948608	1.3174363	0.12483673	0.3199111	1.2711064	-0.22647687	0.41316827	1.262658	0.077621437	0.42635889	1.2564241	-0.085158585	0.34868936	0.44041971	0.15566084	0.44289484	0.59996912	0.094994286	0.31286362	0.10186197	0.07233712	0.28961063	0.10007745	0.15199458	0.3105679	0.31111325	0.17229135	0.24357236	0.032136967	0.093443161	0.44789032	0.051303944	0.11925494
915	9.14	0.32362051	0.42223248	0.03069039	0.45329553	0.89695715	0.081534027	0.37166577	0.90708789	0.11392075	0.28361313	0.89857471	-0.027798784	0.38223129	0.90450842	-0.17772603	0.46878714	0.90470209	-0.11725896	0.42892819	1.2510811	-0.024629194	0.35873062	1.3173608	0.12473809	0.3197283	1.2710464	-0.22664865	0.41244183	1.2625723	0.077591644	0.42588409	1.2563582	-0.08514576	0.34851218	0.44039996	0.155588	0.44256909	0.59999072	0.094902466	0.31281577	0.10181412	0.072328308	0.28958746	0.10003159	0.15200217	0.31046799	0.31107703	0.17225717	0.24355876	0.032104115	0.093450607	0.44779858	0.051404064	0.11927578
916	9.15	0.32378732	0.42191779	0.031766481	0.45280881	0.89697986	0.081477859	0.37109991	0.90706927	0.11378097	0.28329309	0.89849414	-0.028114128	0.38215378	0.90449091	-0.17786621	0.46861209	0.90472461	-0.11728674	0.42838083	1.2510057	-0.024626389	0.35801083	1.3172886	0.12464232	0.31959723	1.2709396	-0.22671805	0.41175015	1.2624923	0.077565353	0.42544644	1.2562991	-0.08513472	0.34834082	0.44037305	0.15551299	0.44225882	0.60001166	0.094813232	0.31276886	0.10176854	0.072316772	0.28956555	0.09999025	0.15200867	0.31037381	0.31104477	0.17221701	0.24354626	0.032070889	0.093458084	0.44770706	0.051492058	0.11929499
